<?xml version="1.0" encoding="utf-8"?>
<!-- Generator: Adobe Illustrator 18.0.0, SVG Export Plug-In . SVG Version: 6.00 Build 0)  -->
<!DOCTYPE svg PUBLIC "-//W3C//DTD SVG 1.1//EN" "http://www.w3.org/Graphics/SVG/1.1/DTD/svg11.dtd">
<svg version="1.1" id="Layer_1" xmlns="http://www.w3.org/2000/svg" xmlns:xlink="http://www.w3.org/1999/xlink" x="0px" y="0px"
	 viewBox="0 8.4 128 111.9" enable-background="new 0 8.4 128 111.9" xml:space="preserve">
<g transform="translate(0.000000,128.000000) scale(0.100000,-0.100000)">
	<path fill="#6F3732" stroke="#6F3732" stroke-miterlimit="10" d="M847,832c-26-26-47-54-47-62s26-40,57-72l57-58l-57-58
		c-31-32-57-64-57-73c0-19,91-109,110-109c8,0,40,26,72,57l58,57l58-57c32-31,64-57,73-57c19,0,109,91,109,110c0,8-26,40-57,72
		l-57,58l57,58c31,32,57,64,57,73c0,19-91,109-110,109c-8,0-40-25-72-57l-57-56l-58,56c-31,32-64,57-73,57S873,858,847,832z"/>
</g>
<path fill="#6F3732" stroke="#6F3732" stroke-miterlimit="10" d="M64.7,8.4C64,9,56.6,16,48.4,23.9L33.5,38.3H19.1
	C3.6,38.3,2.3,38.5,0.7,41C0.1,42.1,0,44.7,0,63.8v21.6L1.4,87l1.4,1.7l15.1,0.2L33,89.1l15.9,15.4c16.7,16.2,17.7,17,20.2,15.4
	c0.7-0.4,1.6-1.6,2-2.6c0.8-1.7,0.8-5.3,0.8-52.8c0-32.3-0.2-51.6-0.5-52.8C70.6,8,67.4,6.6,64.7,8.4z"/>
</svg>
