<?xml version="1.0" encoding="utf-8"?>
<!-- Generator: Adobe Illustrator 18.0.0, SVG Export Plug-In . SVG Version: 6.00 Build 0)  -->
<!DOCTYPE svg PUBLIC "-//W3C//DTD SVG 1.1//EN" "http://www.w3.org/Graphics/SVG/1.1/DTD/svg11.dtd">
<svg version="1.1" id="Layer_1" xmlns="http://www.w3.org/2000/svg" xmlns:xlink="http://www.w3.org/1999/xlink" x="0px" y="0px"
	 viewBox="14 45.2 276.2 215.8" enable-background="new 14 45.2 276.2 215.8" xml:space="preserve">
<g transform="translate(0.000000,300.000000) scale(0.100000,-0.100000)">
	<path fill="#6F3732" stroke="#6F3732" stroke-miterlimit="10" d="M1525,2532c-16-11-174-144-349-296l-319-276H548
		c-331,0-358-4-392-51c-14-21-16-71-16-436v-413l29-32l29-33l324-3l324-3l340-294c358-311,378-325,433-294c14,8,34,30,43,49
		c17,33,18,102,18,1010c0,619-4,988-10,1011C1651,2540,1582,2568,1525,2532z"/>
	<path fill="#6F3732" stroke="#6F3732" stroke-miterlimit="10" d="M2423,2530c-29-12-56-55-56-90c0-18,26-67,75-142
		c96-143,140-231,188-377c52-158,70-273,70-456s-18-298-70-456c-48-146-92-234-186-375c-85-128-92-158-45-205c34-33,91-40,128-14
		c12,9,54,63,93,122c207,310,301,658,279,1038c-17,292-119,586-289,834c-33,48-69,96-79,105C2508,2535,2453,2543,2423,2530z"/>
	<path fill="#6F3732" stroke="#6F3732" stroke-miterlimit="10" d="M2163,2270c-12-5-30-21-39-36c-29-43-23-83,23-149
		c80-119,143-268,175-420c16-77,16-323,0-400c-32-149-89-289-172-416c-50-78-53-118-11-160c23-22,39-29,69-29c51,0,79,27,146,140
		c253,428,244,951-24,1369C2265,2271,2225,2295,2163,2270z"/>
	<path fill="#6F3732" stroke="#6F3732" stroke-miterlimit="10" d="M1870,1978c-21-14-38-36-44-56c-8-29-4-44,37-125
		c63-127,81-198,81-332c0-131-18-206-75-318c-48-96-51-137-10-178c36-36,86-39,125-8c15,12,42,52,61,90c133,264,135,561,5,819
		C1988,1992,1937,2023,1870,1978z"/>
</g>
</svg>
